<?xml version="1.0" encoding="utf-8"?><svg viewBox="0 0 20 20" xmlns="http://www.w3.org/2000/svg" xmlns:xlink="http://www.w3.org/1999/xlink"><style>:root>svg{display:none}:root>svg:target{display:block}</style><svg fill="none" viewBox="0 0 20 20" id="check-circle-1" xmlns="http://www.w3.org/2000/svg"><path opacity=".1" d="M10 0C4.477 0 0 4.477 0 10s4.477 10 10 10 10-4.477 10-10C19.994 4.48 15.52.006 10 0Z" fill="#fff"/><path d="m15.772 6.833-5.704 7.741a.842.842 0 0 1-1.191.157l-4.074-3.257a.834.834 0 0 1 1.042-1.302l3.397 2.718 5.189-7.042a.833.833 0 1 1 1.341.985Z" fill="#fff"/></svg><svg fill="none" viewBox="0 0 20 20" id="check-circle-2" xmlns="http://www.w3.org/2000/svg"><path d="M10 0C4.477 0 0 4.477 0 10s4.477 10 10 10 10-4.477 10-10C19.994 4.48 15.52.006 10 0Z" fill="#5243C2" fill-opacity=".15"/><path d="m15.773 6.833-5.705 7.741a.842.842 0 0 1-1.191.157l-4.074-3.257a.834.834 0 0 1 1.042-1.302l3.397 2.718 5.189-7.042a.833.833 0 1 1 1.342.985Z" fill="#7B72C1"/></svg></svg>